<svg width="150" height="115.8" viewBox="0 0 300 232" fill="none" xmlns="http://www.w3.org/2000/svg">
<path d="M242.859 193.819V144.308C229.823 136.782 215.035 132.819 199.983 132.819C184.93 132.819 170.142 136.782 157.106 144.308V193.819L199.983 218.575L242.859 193.819Z" fill="#FF7D08"/>
<path d="M99.999 111.322V342.269L0 284.537V53.5906L99.9688 111.322H99.999Z" fill="#FF9906"/>
<path d="M99.9688 111.322L0 53.6208V53.5906L99.9688 111.322Z" fill="#1581E0"/>
<path d="M399.966 53.5905L299.967 111.322C269.571 93.7716 235.091 84.5319 199.993 84.5319C164.894 84.5319 130.414 93.7716 100.019 111.322H99.9889L0 53.5905C60.7959 18.483 129.763 0 199.968 0C270.172 0 339.14 18.483 399.936 53.5905H399.966Z" fill="#FF7D08"/>
<path d="M399.966 53.5906V284.537L299.967 226.78V111.322L399.966 53.5906Z" fill="#FF560B"/>
<path d="M399.976 284.527L199.978 400V284.527L299.977 226.79L399.976 284.527Z" fill="#FF350D"/>
</svg>
