<svg width="886" height="763" viewBox="0 0 886 763" fill="none" xmlns="http://www.w3.org/2000/svg">
<g clip-path="url(#clip0)">
<path d="M219.742 245.024C219.742 245.024 125.026 277.646 106.862 307.759C88.697 337.871 219.742 245.024 219.742 245.024Z" fill="#544EBB"/>
<path d="M217.689 212.44C217.689 212.44 130.405 203.468 103.926 218.8C77.4476 234.133 217.689 212.44 217.689 212.44Z" fill="#544EBB"/>
<path d="M242.668 197.067C242.668 197.067 198.764 91.6494 209.402 81.2148C220.039 70.7802 242.668 197.067 242.668 197.067Z" fill="#544EBB"/>
<path d="M259.262 220.249C259.262 220.249 282.826 113.695 307.513 113.695C332.199 113.695 259.262 220.249 259.262 220.249Z" fill="#544EBB"/>
<path d="M273.094 221.312C273.094 221.312 354.11 170.116 520.094 185.744C686.078 201.372 273.094 221.312 273.094 221.312Z" fill="#544EBB"/>
<path d="M324.47 227.316C324.47 227.316 466.381 225.422 474.354 240.575C482.326 255.728 324.47 227.316 324.47 227.316Z" fill="#544EBB"/>
<path d="M296.806 243.048C296.806 243.048 382.521 282.666 365.772 294.856C349.023 307.047 296.806 243.048 296.806 243.048Z" fill="#544EBB"/>
<path d="M439.078 290.472C439.078 290.472 510.214 320.112 494.406 339.872C478.598 359.632 439.078 290.472 439.078 290.472Z" fill="#544EBB"/>
<path d="M306.686 266.76C306.686 266.76 454.886 428.792 441.054 438.672C427.222 448.552 306.686 266.76 306.686 266.76Z" fill="#544EBB"/>
<path d="M279.021 254.904C279.021 254.904 341.417 358.824 328.684 368.927C315.95 379.031 279.021 254.904 279.021 254.904Z" fill="#544EBB"/>
<path d="M252.625 250.952C252.625 250.952 196.468 416.655 230.928 414.947C265.388 413.239 252.625 250.952 252.625 250.952Z" fill="#544EBB"/>
<path d="M233.229 259.189C233.229 259.189 138.964 367.004 147.591 378.36C156.218 389.715 233.229 259.189 233.229 259.189Z" fill="#544EBB"/>
<path d="M204.936 186.589C204.936 186.589 122.753 89.5125 46.7567 98.9205C-29.2396 108.329 204.936 186.589 204.936 186.589Z" fill="#544EBB"/>
<path d="M140.702 179.816C140.702 179.816 32.0218 171.912 39.9258 191.672C47.8298 211.432 140.702 179.816 140.702 179.816Z" fill="#544EBB"/>
<path d="M168.366 106.704C168.366 106.704 162.438 79.04 152.558 84.968C142.678 90.896 168.366 106.704 168.366 106.704Z" fill="#544EBB"/>
<path d="M268.482 126.278C268.482 126.278 295.597 12.3391 283.307 11.9211C271.018 11.5031 268.482 126.278 268.482 126.278Z" fill="#544EBB"/>
<path d="M393.63 142.272C393.63 142.272 405.486 112.632 417.342 120.536C429.198 128.44 393.63 142.272 393.63 142.272Z" fill="#544EBB"/>
<path d="M280.998 405.08C280.998 405.08 265.19 521.664 294.83 519.688C324.47 517.712 280.998 405.08 280.998 405.08Z" fill="#544EBB"/>
<path d="M363.687 378.567C363.687 378.567 348.542 353.324 348.542 335.654C348.542 335.654 322.036 307.887 329.609 300.314C337.182 292.741 353.59 321.77 353.59 321.77C353.59 321.77 323.299 287.692 332.134 282.644C340.969 277.595 369.998 315.46 369.998 315.46L380.095 310.411C380.095 310.411 358.649 257.515 373.785 256.139C380.726 255.508 396.503 306.625 396.503 306.625L412.911 348.276C412.911 348.276 419.222 363.422 416.698 372.257C415.16 377.659 413.896 383.135 412.911 388.665L363.687 378.567Z" fill="#FFB9B9"/>
<path opacity="0.1" d="M402.814 384.878C402.814 384.878 411.65 370.994 408.452 349.795C405.255 328.595 387.669 316.722 387.669 316.722C387.669 316.722 376.309 325.557 387.669 348.275C387.669 348.275 373.785 360.897 385.144 381.091" fill="black"/>
<path d="M407.863 384.878C407.863 384.878 416.698 370.994 413.5 349.795C410.303 328.595 392.717 316.722 392.717 316.722C392.717 316.722 381.358 325.557 392.717 348.275C392.717 348.275 378.833 360.897 390.193 381.091" fill="#FFB9B9"/>
<path opacity="0.1" d="M373.154 314.829L366.212 304.1C366.212 304.1 333.396 299.052 337.183 310.411C340.969 321.771 356.115 316.722 356.115 316.722L364.95 325.557L373.154 314.829Z" fill="black"/>
<path d="M378.833 314.197L368.736 300.314C368.736 300.314 335.92 295.265 339.707 306.625C343.493 317.984 358.639 312.935 358.639 312.935L367.474 321.77L378.833 314.197Z" fill="#FFB9B9"/>
<path d="M612.963 480.17L606.652 530.656L705.1 536.967V476.384L612.963 480.17Z" fill="#FFB9B9"/>
<path d="M885.588 762.893L805.749 603.216C800.98 587.422 786.085 561.699 739.809 545.171L705.1 515.809L679.226 514.88L575.729 499.734C575.729 499.734 496.214 494.685 444.466 526.239L430.582 519.928C430.582 519.928 407.863 439.151 417.96 381.092L359.901 376.043C359.901 376.043 328.348 513.618 343.493 555.269C358.639 596.92 414.174 627.211 414.174 627.211L463.398 676.435L482.33 762.262H777.674L782.373 739.743L805.441 762.262L885.588 762.893Z" fill="white"/>
<path d="M773.959 476.39C680.972 501.5 589.578 503.275 500.115 476.777C489.599 473.662 482.409 464.429 482.409 453.949V192.613C482.409 180.92 491.307 170.945 503.432 169.043C587.826 155.808 677.23 156.833 770.737 169.537C783.093 171.216 792.265 181.305 792.265 193.181V453.396C792.265 464.096 784.777 473.469 773.959 476.39Z" fill="white"/>
<path d="M582.19 297.558C582.19 297.558 560.803 266.299 573.964 258.073C587.126 249.847 606.868 272.88 606.868 272.88C606.868 272.88 631.546 251.493 644.708 259.719C657.87 267.945 631.546 297.558 631.546 297.558C631.546 297.558 651.289 302.494 652.934 315.656C654.579 328.817 661.16 363.366 633.192 365.012C618.208 365.893 609.835 361.581 605.29 357.386C603.636 355.904 601.5 355.072 599.279 355.045C597.058 355.019 594.902 355.8 593.213 357.243C583.729 365.233 566.648 374.444 554.222 351.85C549.286 317.301 582.19 297.558 582.19 297.558Z" fill="black"/>
<path d="M740.13 300.849C740.13 300.849 761.517 269.59 748.356 261.364C735.194 253.138 715.452 276.171 715.452 276.171C715.452 276.171 690.774 254.783 677.612 263.009C664.45 271.235 690.773 300.849 690.773 300.849C690.773 300.849 671.031 305.784 669.386 318.946C667.741 332.108 661.16 366.657 689.128 368.302C704.111 369.183 712.484 364.871 717.029 360.677C718.683 359.194 720.82 358.362 723.041 358.336C725.262 358.31 727.417 359.091 729.106 360.534C738.591 368.524 755.671 377.734 768.098 355.141C773.034 320.591 740.13 300.849 740.13 300.849Z" fill="black"/>
<path d="M556.225 386.281C556.225 386.281 587.087 411.129 652.897 409.562C718.707 407.995 739.989 405.309 754.056 389.798C768.123 374.286 772.292 392.201 767.924 403.945C763.556 415.688 757.946 435.728 725.161 438.976C703.578 441.115 656.929 441.622 627.572 441.718C604.753 441.907 582.191 436.888 561.605 427.043C561.332 426.911 561.061 426.779 560.791 426.646C554.546 423.561 549.288 418.792 545.611 412.877C541.934 406.962 539.984 400.136 539.982 393.171C539.984 387.637 540.959 384.646 544.561 383.556C551.054 381.592 556.225 386.281 556.225 386.281Z" fill="black"/>
</g>
<defs>
<clipPath id="clip0">
<rect width="885.587" height="762.892" fill="white"/>
</clipPath>
</defs>
</svg>
