<svg width="135" height="40" viewBox="0 0 135 40" fill="none" xmlns="http://www.w3.org/2000/svg">
<path d="M34.1392 5.85375C31.3419 3.05816 27.7786 1.15461 23.8997 0.383695C20.0208 -0.387223 16.0004 0.00909931 12.3467 1.52257C8.69293 3.03604 5.5699 5.59871 3.37229 8.88669C1.17467 12.1747 0.00113599 16.0403 0 19.9951C0 31.0413 8.95366 40 19.9969 40C23.9534 40.0009 27.8213 38.8283 31.1112 36.6305C34.4012 34.4327 36.9653 31.3085 38.4793 27.6531C39.9932 23.9977 40.389 19.9753 39.6164 16.095C38.8439 12.2146 36.9378 8.65057 34.1392 5.85375ZM31.3619 22.0526C31.2942 22.2982 31.1785 22.5279 31.0213 22.7284C30.8642 22.9289 30.6688 23.0962 30.4465 23.2206L23.5492 27.1119C23.258 27.2746 22.9303 27.3612 22.5967 27.3636C22.1599 27.3635 21.7359 27.2158 21.3935 26.9445L16.8947 23.3931H10.5038C9.98894 23.3931 9.49521 23.1886 9.13117 22.8246C8.76714 22.4605 8.56263 21.9668 8.56263 21.452C8.56263 20.9372 8.76714 20.4434 9.13117 20.0794C9.49521 19.7154 9.98894 19.5108 10.5038 19.5108H17.5674C18.002 19.5111 18.424 19.6573 18.7656 19.9259L22.7762 23.0873L28.5454 19.8357C28.8801 19.6482 29.2627 19.564 29.6452 19.5939C30.0276 19.6238 30.3925 19.7664 30.6939 20.0036C30.9954 20.2409 31.2197 20.5621 31.3386 20.9268C31.4575 21.2915 31.4656 21.6833 31.3619 22.0526ZM31.4341 14.6981C31.4341 15.18 31.2427 15.6421 30.902 15.9828C30.5612 16.3235 30.0991 16.5149 29.6173 16.5149H10.3794C10.1406 16.5149 9.9041 16.4678 9.68348 16.3763C9.46286 16.2849 9.26244 16.1508 9.0937 15.9817C8.92495 15.8127 8.79119 15.6121 8.70006 15.3913C8.60894 15.1705 8.56224 14.934 8.56263 14.6951V14.4465C8.5625 14.2077 8.60939 13.9713 8.70062 13.7507C8.79185 13.5301 8.92564 13.3297 9.09434 13.1608C9.26305 12.9919 9.46337 12.8579 9.68387 12.7664C9.90436 12.6749 10.1407 12.6278 10.3794 12.6277H29.6173C30.0991 12.6277 30.5612 12.8191 30.902 13.1598C31.2427 13.5005 31.4341 13.9626 31.4341 14.4445V14.6981Z" fill="#228CEA"/>
<path d="M48.0589 16.1763C47.9425 16.2893 47.85 16.4245 47.7868 16.5739C47.7236 16.7233 47.6911 16.8838 47.6911 17.0461C47.6911 17.2083 47.7236 17.3689 47.7868 17.5183C47.85 17.6677 47.9425 17.8029 48.0589 17.9159H47.1696C46.9389 17.9156 46.7178 17.8238 46.5548 17.6606C46.3918 17.4974 46.3003 17.2762 46.3003 17.0456C46.3003 16.9314 46.3228 16.8184 46.3665 16.7129C46.4102 16.6074 46.4742 16.5116 46.5549 16.4309C46.6356 16.3502 46.7315 16.2861 46.8369 16.2424C46.9424 16.1988 47.0554 16.1763 47.1696 16.1763H48.0589Z" fill="#213B98"/>
<path d="M63.6323 12.0662V13.2694C63.632 13.5714 63.5119 13.8609 63.2984 14.0745C63.0848 14.288 62.7953 14.4081 62.4933 14.4084H55.6472V17.9117H58.5258C58.5101 17.9131 58.4943 17.9131 58.4787 17.9117H60.2433C60.258 17.9131 60.2728 17.9131 60.2875 17.9117H61.5408C61.8428 17.9119 62.1323 18.032 62.3459 18.2456C62.5594 18.4591 62.6795 18.7487 62.6798 19.0507V20.2538C62.6795 20.5558 62.5594 20.8454 62.3459 21.059C62.1323 21.2725 61.8428 21.3926 61.5408 21.3929H55.6472V25.7163C55.6472 26.0182 55.5273 26.3078 55.3139 26.5213C55.1005 26.7349 54.8111 26.855 54.5092 26.8553H52.2763C51.9743 26.8556 51.6845 26.736 51.4706 26.5228C51.2567 26.3096 51.1361 26.0203 51.1353 25.7183V17.9157H49.4809C49.2553 17.908 49.0415 17.813 48.8847 17.6507C48.7278 17.4884 48.6401 17.2716 48.6401 17.0459C48.6401 16.8202 48.7278 16.6033 48.8847 16.441C49.0415 16.2787 49.2553 16.1837 49.4809 16.1761H51.1353V14.4094H50.3191C50.0952 14.4065 49.881 14.3175 49.721 14.1609C49.561 14.0043 49.4674 13.7921 49.4596 13.5683C49.4519 13.3445 49.5306 13.1263 49.6794 12.959C49.8283 12.7917 50.0358 12.6882 50.2589 12.6698H51.1353H48.8994C48.6685 12.6698 48.4472 12.5781 48.284 12.4149C48.1207 12.2517 48.0291 12.0303 48.0291 11.7995C48.0291 11.5687 48.1207 11.3473 48.284 11.1841C48.4472 11.0209 48.6685 10.9292 48.8994 10.9292H62.4933C62.6427 10.9291 62.7907 10.9584 62.9289 11.0154C63.067 11.0725 63.1925 11.1562 63.2983 11.2618C63.404 11.3674 63.488 11.4928 63.5453 11.6308C63.6026 11.7688 63.6322 11.9168 63.6323 12.0662Z" fill="#213B98"/>
<path d="M47.5096 10.9233C47.3925 11.0358 47.2993 11.1708 47.2357 11.3202C47.1721 11.4696 47.1395 11.6303 47.1396 11.7926C47.14 11.9553 47.1727 12.1163 47.2358 12.2663C47.299 12.4162 47.3914 12.5521 47.5076 12.6659H46.5852C46.3541 12.6659 46.1325 12.5741 45.9691 12.4107C45.8057 12.2473 45.7139 12.0257 45.7139 11.7946C45.7139 11.5636 45.8057 11.3419 45.9691 11.1785C46.1325 11.0151 46.3541 10.9233 46.5852 10.9233H47.5096Z" fill="#213B98"/>
<path d="M60.2824 17.9126C60.2677 17.9141 60.253 17.9141 60.2383 17.9126H58.4736C58.4893 17.9141 58.5051 17.9141 58.5208 17.9126H60.2824Z" fill="#213B98"/>
<path d="M68.2174 9.96973H66.7355C66.3586 9.96973 65.9971 10.1194 65.7305 10.3858C65.4639 10.6522 65.314 11.0136 65.3137 11.3905V25.4356C65.3137 25.8127 65.4635 26.1743 65.7301 26.4409C65.9968 26.7076 66.3584 26.8574 66.7355 26.8574H68.2174C68.5943 26.8571 68.9557 26.7072 69.2221 26.4406C69.4885 26.174 69.6382 25.8125 69.6382 25.4356V11.3905C69.6379 11.0138 69.4881 10.6525 69.2217 10.3861C68.9553 10.1198 68.5941 9.96999 68.2174 9.96973Z" fill="#213B98"/>
<path d="M75.1116 14.5218H73.6307C73.2538 14.5218 72.8923 14.6715 72.6257 14.9379C72.3591 15.2043 72.2092 15.5657 72.209 15.9426V25.4357C72.209 25.8128 72.3587 26.1744 72.6254 26.441C72.892 26.7077 73.2536 26.8574 73.6307 26.8574H75.1116C75.4887 26.8574 75.8503 26.7077 76.117 26.441C76.3836 26.1744 76.5334 25.8128 76.5334 25.4357V15.9426C76.5331 15.5657 76.3832 15.2043 76.1166 14.9379C75.85 14.6715 75.4885 14.5218 75.1116 14.5218ZM74.3707 8.55908C72.7795 8.55908 71.7317 9.56173 71.7317 10.8592C71.7317 12.1566 72.7795 13.1552 74.3707 13.1552C75.9619 13.1552 77.0106 12.1526 77.0106 10.79C77.0106 9.49255 75.9649 8.55908 74.3707 8.55908Z" fill="#213B98"/>
<path d="M86.8655 14.3184C85.2492 14.3184 84.0421 14.7716 83.2249 15.7511V15.0102C83.2246 14.8808 83.1731 14.7567 83.0816 14.6652C82.9901 14.5737 82.866 14.5222 82.7366 14.5219H79.5923C79.4629 14.5222 79.3388 14.5737 79.2473 14.6652C79.1558 14.7567 79.1043 14.8808 79.104 15.0102V30.7839C79.1043 30.9133 79.1558 31.0373 79.2473 31.1289C79.3388 31.2204 79.4629 31.2719 79.5923 31.2722H82.9391C83.0033 31.2723 83.0669 31.2598 83.1262 31.2353C83.1855 31.2108 83.2393 31.1748 83.2847 31.1294C83.3301 31.0841 83.366 31.0302 83.3905 30.9709C83.415 30.9116 83.4276 30.848 83.4274 30.7839V25.7626C84.2707 26.6269 85.4327 27.057 86.8655 27.057C90.2104 27.057 92.9185 24.6015 92.9185 20.6862C92.9185 16.7708 90.2104 14.3184 86.8655 14.3184ZM85.9551 23.625C84.4983 23.625 83.3593 22.5551 83.3593 20.6892C83.3593 18.8233 84.4983 17.7534 85.9551 17.7534C87.412 17.7534 88.55 18.8243 88.55 20.6892C88.55 22.5541 87.412 23.625 85.9551 23.625Z" fill="#213B98"/>
<path d="M101.906 14.5679C100.247 14.5679 98.8341 15.1364 97.8786 16.2964V15.3169C97.8784 15.2363 97.8624 15.1566 97.8315 15.0823C97.8005 15.0079 97.7552 14.9404 97.6981 14.8836C97.641 14.8268 97.5733 14.7818 97.4988 14.7512C97.4243 14.7206 97.3445 14.705 97.2639 14.7052H95.785C95.6225 14.705 95.4664 14.7692 95.3512 14.8839C95.236 14.9986 95.1709 15.1543 95.1704 15.3169V30.6574C95.1703 30.7381 95.1861 30.8181 95.2169 30.8928C95.2478 30.9674 95.293 31.0352 95.3501 31.0923C95.4072 31.1494 95.475 31.1947 95.5497 31.2255C95.6243 31.2563 95.7043 31.2722 95.785 31.272H97.4013C97.4821 31.2722 97.562 31.2563 97.6367 31.2255C97.7113 31.1947 97.7791 31.1494 97.8362 31.0923C97.8933 31.0352 97.9386 30.9674 97.9694 30.8928C98.0003 30.8181 98.0161 30.7381 98.0159 30.6574V25.3784C98.9955 26.4924 100.359 27.0168 101.906 27.0168C105.457 27.0168 108.075 24.5583 108.075 20.7803C108.075 17.0264 105.457 14.5679 101.906 14.5679ZM101.588 24.5803C99.542 24.5803 97.9698 23.1014 97.9698 20.7803C97.9698 18.4592 99.542 16.9802 101.588 16.9802C103.635 16.9802 105.185 18.4592 105.185 20.7803C105.185 23.1014 103.638 24.5803 101.588 24.5803Z" fill="#213B98"/>
<path d="M116.484 14.6589C114.204 14.3702 111.839 14.7652 110.223 15.836C110.132 15.8956 110.066 15.9873 110.04 16.093C110.013 16.1986 110.026 16.3105 110.078 16.4065L110.78 17.704C110.809 17.7569 110.849 17.8032 110.897 17.8398C110.945 17.8765 111.001 17.9028 111.059 17.917C111.118 17.9313 111.179 17.9331 111.239 17.9225C111.298 17.9119 111.355 17.889 111.405 17.8554C112.302 17.2758 113.518 16.9329 114.703 16.9329C116.728 16.9329 117.729 17.9125 117.729 19.5749V19.7564H114.583C110.895 19.7564 109.531 21.3506 109.531 23.375C109.531 25.4905 111.282 27.0166 114.058 27.0166C115.88 27.0166 117.2 26.424 117.884 25.3782V26.424C117.884 26.5388 117.93 26.6488 118.011 26.73C118.092 26.8112 118.202 26.8569 118.317 26.8572H120.134C120.191 26.8574 120.247 26.8464 120.3 26.8248C120.353 26.8031 120.401 26.7713 120.441 26.7311C120.482 26.6908 120.514 26.643 120.536 26.5903C120.558 26.5376 120.57 26.4811 120.57 26.424V19.2922C120.57 18.1547 120.155 17.0562 119.403 16.2031C118.65 15.35 117.612 14.8009 116.484 14.6589ZM117.724 23.0551C117.244 24.3064 116.04 24.9431 114.651 24.9431C113.194 24.9431 112.33 24.2844 112.33 23.2576C112.33 22.3723 112.854 21.6424 114.788 21.6424H117.724V23.0551Z" fill="#213B98"/>
<path d="M134.449 14.7051H132.697C132.609 14.7054 132.523 14.7313 132.45 14.7796C132.377 14.8278 132.32 14.8964 132.285 14.9768L128.557 23.6938L124.847 14.9768C124.812 14.896 124.754 14.8272 124.68 14.7789C124.606 14.7307 124.52 14.705 124.432 14.7051H122.454C122.379 14.7052 122.306 14.7237 122.241 14.7589C122.176 14.7942 122.12 14.8451 122.08 14.9072C122.039 14.9692 122.014 15.0403 122.008 15.1143C122.001 15.1882 122.013 15.2626 122.043 15.3307L127.075 26.9013L126.868 27.3816C126.323 28.5848 125.73 29.063 124.729 29.063C124.118 29.059 123.522 28.8737 123.016 28.5306C122.965 28.4963 122.907 28.4732 122.846 28.4627C122.785 28.4523 122.722 28.4549 122.662 28.4702C122.602 28.4855 122.546 28.5133 122.498 28.5517C122.449 28.5901 122.409 28.6382 122.38 28.693L121.679 29.9845C121.626 30.08 121.61 30.1914 121.633 30.2979C121.656 30.4044 121.717 30.499 121.805 30.564C122.584 31.1155 123.695 31.4313 124.755 31.4313C126.779 31.4313 128.327 30.5881 129.44 27.8368L134.854 15.3307C134.884 15.2631 134.896 15.1892 134.89 15.1158C134.883 15.0423 134.859 14.9715 134.819 14.9096C134.779 14.8478 134.724 14.7967 134.66 14.761C134.595 14.7254 134.523 14.7061 134.449 14.7051Z" fill="#213B98"/>
<path d="M60.2824 17.9126C60.2677 17.9141 60.253 17.9141 60.2383 17.9126H58.4736C58.4893 17.9141 58.5051 17.9141 58.5208 17.9126H60.2824Z" fill="#213B98"/>
</svg>
