<svg width="292" height="80" viewBox="0 0 292 80" fill="none" xmlns="http://www.w3.org/2000/svg">
<path d="M48.5714 38.7648V28.86C45.9638 27.3555 43.0062 26.5635 39.9957 26.5635C36.9851 26.5635 34.0276 27.3555 31.4199 28.86V38.7619L39.9971 43.7143L48.5714 38.7648Z" fill="#FF7D08"/>
<path d="M126 31.0592C126 37.8933 120.941 42.1097 112.774 42.1097H105.761V51.0823H99.9885V20.0059H112.771C120.941 20.0059 126 24.179 126 31.0592ZM120.185 31.0592C120.185 27.1516 117.567 24.889 112.508 24.889H105.761V37.2295H112.508C117.567 37.2295 120.185 34.964 120.185 31.0592Z" fill="black"/>
<path d="M150.854 37.657V51.0827H145.618V48.1967C144.288 50.2371 141.714 51.3915 138.164 51.3915C132.75 51.3915 129.333 48.4189 129.333 44.289C129.333 40.341 131.994 37.2328 139.186 37.2328H145.31V36.8778C145.31 33.6368 143.356 31.7292 139.405 31.7292C136.744 31.7292 133.991 32.618 132.216 34.0812L130.043 30.0408C132.756 27.9485 136.77 26.9759 140.865 27.1289C146.47 27.3193 150.854 32.0495 150.854 37.657ZM145.307 43.6628V40.9124H139.581C135.809 40.9124 134.787 42.3323 134.787 44.061C134.787 46.0582 136.473 47.3453 139.315 47.3453C142.023 47.3453 144.375 46.1043 145.307 43.6628Z" fill="black"/>
<path d="M179.703 27.374L168.609 52.9844C166.433 58.3524 163.414 59.9945 159.466 59.9945C157.114 59.9945 154.626 59.198 153.117 57.8213L155.333 53.7376C156.438 54.7811 157.897 55.3678 159.417 55.3798C161.371 55.3798 162.525 54.4476 163.59 52.0955L163.989 51.1633L153.651 27.374H159.423L166.88 44.9065L174.384 27.374H179.703Z" fill="black"/>
<path d="M211.305 20.0059V51.0823H206.554L189.423 30.0463V51.0823H183.697V20.0059H188.456L205.588 41.0448V20.0059H211.305Z" fill="black"/>
<path d="M241.308 27.374L230.214 52.9844C228.038 58.3524 225.019 59.9945 221.071 59.9945C218.719 59.9945 216.231 59.198 214.722 57.8213L216.941 53.7376C218.046 54.7816 219.505 55.3683 221.025 55.3798C222.979 55.3798 224.133 54.4476 225.198 52.0955L225.596 51.1633L215.256 27.374H221.028L228.485 44.9065L235.989 27.374H241.308Z" fill="black"/>
<path d="M242.153 39.2237C242.153 32.1242 247.478 27.1025 254.979 27.1025C259.596 27.1025 263.279 29.0102 265.097 32.6061L260.837 35.091C260.232 34.0704 259.367 33.2287 258.33 32.6517C257.293 32.0748 256.122 31.7832 254.935 31.8067C250.852 31.8067 247.744 34.6465 247.744 39.218C247.744 43.8356 250.852 46.6292 254.935 46.6292C256.122 46.6534 257.293 46.362 258.33 45.785C259.367 45.208 260.232 44.3659 260.837 43.345L265.097 45.8327C263.279 49.3825 259.593 51.3796 254.979 51.3796C247.478 51.3854 242.153 46.3262 242.153 39.2237Z" fill="black"/>
<path d="M291.729 40.9988H273.131C273.795 44.462 276.681 46.6813 280.808 46.6813C283.472 46.6813 285.558 45.8386 287.244 44.107L290.219 47.524C288.086 50.0551 284.759 51.3855 280.675 51.3855C272.765 51.3855 267.625 46.3235 267.584 39.3134C267.544 32.6929 272.967 27.2181 279.584 27.1085C286.635 26.993 291.815 31.8588 291.815 39.3566C291.815 39.8011 291.775 40.4678 291.729 40.9988ZM273.085 37.3162H286.534C286.089 33.8992 283.472 31.5442 279.832 31.5442C276.193 31.5442 273.619 33.853 273.085 37.3162Z" fill="black"/>
<path d="M20 22.2656V68.4532L0 56.9092V10.7188L19.9942 22.2656H20Z" fill="#FF9906"/>
<path d="M19.9942 22.2656L0 10.7245V10.7188L19.9942 22.2656Z" fill="#1581E0"/>
<path d="M79.9942 10.7186L59.9942 22.2627C53.9154 18.7524 47.0195 16.9043 40 16.9043C32.9804 16.9043 26.0846 18.7524 20.0058 22.2627L0 10.7186C12.1593 3.69679 25.953 0 39.9942 0C54.0354 0 67.8291 3.69679 79.9884 10.7186H79.9942Z" fill="#FF7D08"/>
<path d="M79.9941 10.7188V56.9092L59.9941 45.3565V22.2656L79.9941 10.7188Z" fill="#FF560B"/>
<path d="M79.9968 56.9063L39.9968 80.0001V56.9063L59.9939 45.3594L79.9968 56.9063Z" fill="#FF350D"/>
</svg>
