<svg width="146" height="40" viewBox="0 0 146 40" fill="none" xmlns="http://www.w3.org/2000/svg">
<path d="M24.2857 19.3824V14.43C22.9819 13.6777 21.5031 13.2817 19.9978 13.2817C18.4926 13.2817 17.0138 13.6777 15.71 14.43V19.3809L19.9986 21.8571L24.2857 19.3824Z" fill="#FF7D08"/>
<path d="M62.9999 15.5296C62.9999 18.9466 60.4703 21.0549 56.3866 21.0549H52.8801V25.5412H49.9941V10.0029H56.3852C60.4703 10.0029 62.9999 12.0895 62.9999 15.5296ZM60.0923 15.5296C60.0923 13.5758 58.7835 12.4445 56.2539 12.4445H52.8801V18.6148H56.2539C58.7835 18.6148 60.0923 17.482 60.0923 15.5296Z" fill="white"/>
<path d="M75.4272 18.8285V25.5413H72.8096V24.0983C72.1444 25.1185 70.8572 25.6957 69.0823 25.6957C66.3753 25.6957 64.6667 24.2095 64.6667 22.1445C64.6667 20.1705 65.9972 18.6164 69.5932 18.6164H72.6552V18.4389C72.6552 16.8184 71.6783 15.8646 69.7028 15.8646C68.3724 15.8646 66.9957 16.309 66.1083 17.0406L65.0217 15.0204C66.3781 13.9742 68.3854 13.488 70.433 13.5644C73.2353 13.6597 75.4272 16.0248 75.4272 18.8285ZM72.6538 21.8314V20.4562H69.7908C67.9048 20.4562 67.394 21.1662 67.394 22.0305C67.394 23.0291 68.2367 23.6727 69.6581 23.6727C71.0116 23.6727 72.1877 23.0522 72.6538 21.8314Z" fill="white"/>
<path d="M89.8513 13.687L84.3044 26.4922C83.2164 29.1762 81.707 29.9972 79.733 29.9972C78.5569 29.9972 77.313 29.599 76.5583 28.9107L77.6666 26.8688C78.2191 27.3905 78.9485 27.6839 79.7084 27.6899C80.6853 27.6899 81.2625 27.2238 81.795 26.0478L81.9941 25.5817L76.8253 13.687H79.7113L83.44 22.4532L87.1918 13.687H89.8513Z" fill="white"/>
<path d="M105.652 10.0029V25.5412H103.277L94.7113 15.0231V25.5412H91.8484V10.0029H94.2279L102.794 20.5224V10.0029H105.652Z" fill="white"/>
<path d="M120.654 13.687L115.107 26.4922C114.019 29.1762 112.509 29.9972 110.535 29.9972C109.359 29.9972 108.115 29.599 107.361 28.9107L108.47 26.8688C109.023 27.3908 109.752 27.6842 110.512 27.6899C111.489 27.6899 112.066 27.2238 112.599 26.0478L112.798 25.5817L107.628 13.687H110.514L114.242 22.4532L117.994 13.687H120.654Z" fill="white"/>
<path d="M121.076 19.6119C121.076 16.0621 123.739 13.5513 127.489 13.5513C129.798 13.5513 131.639 14.5051 132.548 16.3031L130.418 17.5455C130.116 17.0352 129.683 16.6144 129.165 16.3259C128.646 16.0374 128.061 15.8916 127.467 15.9034C125.426 15.9034 123.872 17.3233 123.872 19.609C123.872 21.9178 125.426 23.3146 127.467 23.3146C128.061 23.3267 128.646 23.181 129.165 22.8925C129.683 22.604 130.116 22.183 130.418 21.6725L132.548 22.9163C131.639 24.6912 129.796 25.6898 127.489 25.6898C123.739 25.6927 121.076 23.1631 121.076 19.6119Z" fill="white"/>
<path d="M145.864 20.4994H136.566C136.897 22.231 138.34 23.3407 140.404 23.3407C141.736 23.3407 142.779 22.9193 143.622 22.0535L145.11 23.762C144.043 25.0275 142.379 25.6927 140.338 25.6927C136.382 25.6927 133.812 23.1617 133.792 19.6567C133.772 16.3464 136.483 13.6091 139.792 13.5542C143.317 13.4965 145.908 15.9294 145.908 19.6783C145.908 19.9005 145.887 20.2339 145.864 20.4994ZM136.542 18.6581H143.267C143.045 16.9496 141.736 15.7721 139.916 15.7721C138.097 15.7721 136.809 16.9265 136.542 18.6581Z" fill="white"/>
<path d="M10 11.1328V34.2266L0 28.4546V5.35938L9.99711 11.1328H10Z" fill="#FF9906"/>
<path d="M9.99711 11.1328L0 5.36226V5.35938L9.99711 11.1328Z" fill="#1581E0"/>
<path d="M39.9971 5.35932L29.9971 11.1313C26.9577 9.37619 23.5098 8.45216 20 8.45216C16.4902 8.45216 13.0423 9.37619 10.0029 11.1313L0 5.35932C6.07965 1.84839 12.9765 0 19.9971 0C27.0177 0 33.9146 1.84839 39.9942 5.35932H39.9971Z" fill="#FF7D08"/>
<path d="M39.9971 5.35938V28.4546L29.9971 22.6783V11.1328L39.9971 5.35938Z" fill="#FF560B"/>
<path d="M39.9985 28.4531L19.9985 40V28.4531L29.9971 22.6797L39.9985 28.4531Z" fill="#FF350D"/>
</svg>
