<svg width="80" height="80" viewBox="0 0 80 80" fill="none" xmlns="http://www.w3.org/2000/svg">
<path d="M48.5748 38.764V28.8617C45.9675 27.3564 43.0098 26.564 39.9991 26.564C36.9884 26.564 34.0307 27.3564 31.4233 28.8617V38.764L39.9991 43.7151L48.5748 38.764Z" fill="#FF7D08"/>
<path d="M20.001 22.2643V68.4536L0 56.9073V10.718L19.995 22.2643H20.001Z" fill="#FF9906"/>
<path d="M19.995 22.2643L0 10.7241V10.718L19.995 22.2643Z" fill="#1581E0"/>
<path d="M79.998 10.7181L59.997 22.2644C53.9175 18.7543 47.0211 16.9064 40.001 16.9064C32.9809 16.9064 26.0845 18.7543 20.005 22.2644H19.999L0 10.7181C12.1599 3.69659 25.9542 0 39.996 0C54.0377 0 67.832 3.69659 79.992 10.7181H79.998Z" fill="#FF7D08"/>
<path d="M79.9978 10.718V56.9073L59.9968 45.3559V22.2643L79.9978 10.718Z" fill="#FF560B"/>
<path d="M80.0001 56.9055L39.998 80.0001V56.9055L59.9991 45.3582L80.0001 56.9055Z" fill="#FF350D"/>
</svg>
