<svg width="216" height="64" viewBox="0 0 216 64" fill="none" xmlns="http://www.w3.org/2000/svg">
<path d="M54.6231 9.366C50.1474 4.89306 44.4461 1.84738 38.2398 0.613912C32.0335 -0.619557 25.6008 0.0145589 19.7548 2.43611C13.9088 4.85766 8.9119 8.95794 5.3957 14.2187C1.87949 19.4795 0.0018176 25.6646 0 31.9922C0 49.6661 14.326 64 31.9952 64C38.3257 64.0015 44.5144 62.1253 49.7783 58.6088C55.0423 55.0923 59.1449 50.0936 61.5673 44.2449C63.9897 38.3963 64.6228 31.9606 63.3868 25.752C62.1507 19.5434 59.1009 13.8409 54.6231 9.366ZM50.1794 35.2841C50.0711 35.6771 49.8859 36.0446 49.6345 36.3655C49.383 36.6863 49.0704 36.954 48.7147 37.153L37.6791 43.3791C37.213 43.6394 36.6888 43.7779 36.155 43.7818C35.4561 43.7816 34.7777 43.5453 34.2299 43.1112L27.0316 37.429H16.8061C15.9824 37.429 15.1924 37.1018 14.61 36.5193C14.0275 35.9368 13.7003 35.1469 13.7003 34.3232C13.7003 33.4995 14.0275 32.7095 14.61 32.127C15.1924 31.5446 15.9824 31.2174 16.8061 31.2174H28.1081C28.8035 31.2178 29.4786 31.4517 30.0252 31.8815L36.4422 36.9397L45.673 31.7371C46.2084 31.4371 46.8207 31.3025 47.4326 31.3503C48.0444 31.3981 48.6284 31.6262 49.1107 32.0058C49.5929 32.3854 49.9518 32.8994 50.1421 33.4829C50.3323 34.0664 50.3453 34.6932 50.1794 35.2841ZM50.2949 23.517C50.2949 24.288 49.9886 25.0273 49.4435 25.5725C48.8983 26.1176 48.1589 26.4239 47.388 26.4239H16.6072C16.2251 26.4239 15.8467 26.3485 15.4937 26.2022C15.1407 26.0558 14.82 25.8412 14.55 25.5708C14.28 25.3003 14.066 24.9793 13.9202 24.6261C13.7744 24.2728 13.6997 23.8943 13.7003 23.5122V23.1143C13.7001 22.7324 13.7751 22.3541 13.9211 22.0012C14.0671 21.6482 14.2811 21.3275 14.5511 21.0573C14.821 20.787 15.1415 20.5726 15.4943 20.4263C15.8471 20.2799 16.2253 20.2045 16.6072 20.2042H47.388C48.1589 20.2042 48.8983 20.5105 49.4435 21.0557C49.9886 21.6008 50.2949 22.3402 50.2949 23.1111V23.517Z" fill="white"/>
<path d="M76.895 25.8818C76.7088 26.0626 76.5607 26.2789 76.4596 26.518C76.3585 26.757 76.3064 27.014 76.3064 27.2735C76.3064 27.5331 76.3585 27.79 76.4596 28.029C76.5607 28.2681 76.7088 28.4844 76.895 28.6652H75.4721C75.103 28.6648 74.7493 28.5179 74.4885 28.2568C74.2277 27.9957 74.0812 27.6417 74.0812 27.2727C74.0812 27.0901 74.1172 26.9092 74.1871 26.7404C74.257 26.5717 74.3594 26.4184 74.4886 26.2892C74.6177 26.1601 74.771 26.0576 74.9398 25.9877C75.1085 25.9178 75.2894 25.8818 75.4721 25.8818H76.895Z" fill="white"/>
<path d="M101.812 19.306V21.2311C101.812 21.7143 101.62 22.1776 101.278 22.5193C100.936 22.861 100.473 23.0531 99.9898 23.0535H89.036V28.6587H93.6418C93.6167 28.6611 93.5914 28.6611 93.5664 28.6587H96.3899C96.4133 28.6611 96.437 28.6611 96.4604 28.6587H98.4658C98.949 28.6592 99.4123 28.8513 99.7539 29.193C100.096 29.5347 100.288 29.998 100.288 30.4812V32.4063C100.288 32.8895 100.096 33.3528 99.7539 33.6944C99.4123 34.0361 98.949 34.2282 98.4658 34.2287H89.036V41.1462C89.036 41.6292 88.8442 42.0925 88.5028 42.4342C88.1613 42.776 87.6982 42.9681 87.2151 42.9686H83.6425C83.1593 42.969 82.6956 42.7777 82.3533 42.4366C82.0111 42.0955 81.8181 41.6326 81.8168 41.1494V28.6652H79.1698C78.8089 28.6529 78.4669 28.5009 78.2159 28.2413C77.9649 27.9816 77.8246 27.6346 77.8246 27.2735C77.8246 26.9124 77.9649 26.5654 78.2159 26.3057C78.4669 26.0461 78.8089 25.8941 79.1698 25.8818H81.8168V23.0551H80.511C80.1527 23.0505 79.81 22.9081 79.554 22.6575C79.2979 22.4069 79.1482 22.0674 79.1358 21.7094C79.1234 21.3513 79.2493 21.0022 79.4875 20.7345C79.7256 20.4669 80.0577 20.3012 80.4147 20.2718H81.8168H78.2394C77.87 20.2718 77.5159 20.1251 77.2547 19.8639C76.9936 19.6028 76.8469 19.2486 76.8469 18.8793C76.8469 18.51 76.9936 18.1558 77.2547 17.8947C77.5159 17.6335 77.87 17.4868 78.2394 17.4868H99.9898C100.229 17.4866 100.466 17.5335 100.687 17.6248C100.908 17.7161 101.109 17.8501 101.278 18.019C101.447 18.1879 101.581 18.3885 101.673 18.6094C101.765 18.8302 101.812 19.0669 101.812 19.306Z" fill="white"/>
<path d="M76.0158 17.4771C75.8284 17.657 75.6793 17.8729 75.5776 18.112C75.4758 18.351 75.4235 18.6081 75.4238 18.8679C75.4244 19.1282 75.4767 19.3859 75.5778 19.6257C75.6789 19.8656 75.8267 20.083 76.0126 20.2652H74.5367C74.1669 20.2652 73.8123 20.1183 73.5509 19.8569C73.2895 19.5955 73.1426 19.2409 73.1426 18.8711C73.1426 18.5014 73.2895 18.1468 73.5509 17.8854C73.8123 17.6239 74.1669 17.4771 74.5367 17.4771H76.0158Z" fill="white"/>
<path d="M96.4524 28.6602C96.429 28.6626 96.4053 28.6626 96.3818 28.6602H93.5583C93.5834 28.6626 93.6087 28.6626 93.6337 28.6602H96.4524Z" fill="white"/>
<path d="M109.148 15.9512H106.777C106.174 15.9512 105.596 16.1906 105.169 16.6169C104.743 17.0431 104.503 17.6213 104.503 18.2244V40.6966C104.503 41.2999 104.742 41.8785 105.169 42.3051C105.595 42.7317 106.174 42.9714 106.777 42.9714H109.148C109.752 42.971 110.33 42.7311 110.756 42.3045C111.182 41.878 111.422 41.2996 111.422 40.6966V18.2244C111.421 17.6216 111.182 17.0437 110.755 16.6174C110.329 16.1912 109.751 15.9516 109.148 15.9512Z" fill="white"/>
<path d="M120.179 23.2347H117.81C117.207 23.2347 116.628 23.4742 116.202 23.9005C115.775 24.3267 115.535 24.9049 115.535 25.508V40.6969C115.535 41.3002 115.775 41.8788 116.201 42.3054C116.628 42.732 117.206 42.9717 117.81 42.9717H120.179C120.783 42.9717 121.361 42.732 121.788 42.3054C122.214 41.8788 122.454 41.3002 122.454 40.6969V25.508C122.454 24.9049 122.214 24.3267 121.787 23.9005C121.361 23.4742 120.782 23.2347 120.179 23.2347ZM118.994 13.6943C116.448 13.6943 114.771 15.2986 114.771 17.3745C114.771 19.4503 116.448 21.0482 118.994 21.0482C121.54 21.0482 123.218 19.4439 123.218 17.2638C123.218 15.1879 121.545 13.6943 118.994 13.6943Z" fill="white"/>
<path d="M138.986 22.9092C136.4 22.9092 134.468 23.6343 133.161 25.2016V24.0161C133.16 23.809 133.078 23.6106 132.932 23.4641C132.785 23.3177 132.587 23.2353 132.38 23.2348H127.349C127.142 23.2353 126.943 23.3177 126.797 23.4641C126.65 23.6106 126.568 23.809 126.567 24.0161V49.254C126.568 49.4611 126.65 49.6596 126.797 49.806C126.943 49.9524 127.142 50.0349 127.349 50.0353H132.704C132.806 50.0355 132.908 50.0154 133.003 49.9762C133.098 49.9371 133.184 49.8795 133.257 49.8069C133.329 49.7343 133.387 49.6481 133.426 49.5532C133.465 49.4584 133.485 49.3567 133.485 49.254V41.22C134.834 42.6028 136.693 43.2911 138.986 43.2911C144.338 43.2911 148.671 39.3623 148.671 33.0977C148.671 26.8332 144.338 22.9092 138.986 22.9092ZM137.529 37.7997C135.198 37.7997 133.376 36.088 133.376 33.1025C133.376 30.117 135.198 28.4053 137.529 28.4053C139.86 28.4053 141.681 30.1186 141.681 33.1025C141.681 36.0864 139.86 37.7997 137.529 37.7997Z" fill="white"/>
<path d="M163.051 23.3086C160.396 23.3086 158.136 24.2182 156.607 26.0743V24.507C156.607 24.3781 156.581 24.2506 156.532 24.1316C156.482 24.0127 156.41 23.9047 156.318 23.8138C156.227 23.7229 156.119 23.6509 155.999 23.6019C155.88 23.5529 155.752 23.528 155.624 23.5284H153.257C152.997 23.5279 152.748 23.6308 152.563 23.8142C152.379 23.9977 152.275 24.2469 152.274 24.507V49.0518C152.274 49.181 152.299 49.309 152.348 49.4284C152.398 49.5478 152.47 49.6563 152.561 49.7477C152.653 49.839 152.761 49.9115 152.881 49.9608C153 50.0102 153.128 50.0354 153.257 50.0352H155.843C155.973 50.0354 156.101 50.0102 156.22 49.9608C156.339 49.9115 156.448 49.839 156.539 49.7477C156.631 49.6563 156.703 49.5478 156.752 49.4284C156.802 49.309 156.827 49.181 156.827 49.0518V40.6055C158.394 42.3878 160.576 43.2268 163.051 43.2268C168.732 43.2268 172.921 39.2932 172.921 33.2485C172.921 27.2422 168.732 23.3086 163.051 23.3086ZM162.543 39.3285C159.268 39.3285 156.753 36.9623 156.753 33.2485C156.753 29.5346 159.268 27.1684 162.543 27.1684C165.817 27.1684 168.297 29.5346 168.297 33.2485C168.297 36.9623 165.822 39.3285 162.543 39.3285Z" fill="white"/>
<path d="M186.375 23.4546C182.727 22.9925 178.943 23.6246 176.359 25.3379C176.212 25.4333 176.107 25.58 176.064 25.749C176.021 25.9181 176.043 26.0971 176.126 26.2507L177.249 28.3266C177.296 28.4113 177.36 28.4853 177.437 28.544C177.514 28.6027 177.602 28.6448 177.696 28.6675C177.79 28.6903 177.888 28.6933 177.983 28.6763C178.079 28.6593 178.169 28.6227 178.25 28.5689C179.684 27.6416 181.63 27.093 183.526 27.093C186.765 27.093 188.368 28.6603 188.368 31.3201V31.6105H183.334C177.433 31.6105 175.252 34.1613 175.252 37.4002C175.252 40.7852 178.053 43.2268 182.495 43.2268C185.41 43.2268 187.521 42.2787 188.615 40.6055V42.2787C188.615 42.4624 188.689 42.6384 188.818 42.7683C188.948 42.8982 189.124 42.9713 189.308 42.9717H192.215C192.306 42.9722 192.397 42.9546 192.481 42.9199C192.566 42.8853 192.643 42.8344 192.708 42.77C192.772 42.7056 192.824 42.6291 192.859 42.5448C192.894 42.4605 192.913 42.3701 192.913 42.2787V30.8677C192.913 29.0478 192.249 27.2903 191.046 25.9252C189.842 24.5602 188.181 23.6817 186.375 23.4546ZM188.36 36.8885C187.591 38.8906 185.665 39.9092 183.443 39.9092C181.112 39.9092 179.729 38.8553 179.729 37.2125C179.729 35.796 180.568 34.6281 183.663 34.6281H188.36V36.8885Z" fill="white"/>
<path d="M215.121 23.5283H212.316C212.176 23.5289 212.039 23.5703 211.922 23.6475C211.805 23.7247 211.713 23.8344 211.657 23.9631L205.692 37.9103L199.757 23.9631C199.7 23.8338 199.607 23.7237 199.489 23.6465C199.372 23.5692 199.234 23.5282 199.092 23.5283H195.927C195.809 23.5284 195.692 23.558 195.587 23.6145C195.483 23.6709 195.394 23.7524 195.329 23.8516C195.264 23.9509 195.224 24.0647 195.214 24.183C195.203 24.3013 195.223 24.4203 195.27 24.5294L203.321 43.0423L202.991 43.8107C202.118 45.7358 201.17 46.501 199.567 46.501C198.59 46.4947 197.636 46.1982 196.827 45.6492C196.745 45.5942 196.652 45.5572 196.554 45.5406C196.457 45.5239 196.357 45.528 196.261 45.5525C196.165 45.577 196.075 45.6214 195.998 45.6829C195.92 45.7443 195.856 45.8214 195.81 45.9091L194.687 47.9753C194.603 48.1282 194.577 48.3064 194.614 48.4768C194.652 48.6473 194.749 48.7985 194.889 48.9026C196.136 49.7849 197.913 50.2902 199.609 50.2902C202.848 50.2902 205.325 48.9411 207.106 44.539L215.769 24.5294C215.815 24.4211 215.835 24.3029 215.825 24.1854C215.815 24.0679 215.776 23.9546 215.712 23.8556C215.648 23.7566 215.561 23.675 215.457 23.6179C215.354 23.5608 215.238 23.53 215.121 23.5283Z" fill="white"/>
<path d="M96.4524 28.6602C96.429 28.6626 96.4053 28.6626 96.3818 28.6602H93.5583C93.5834 28.6626 93.6087 28.6626 93.6337 28.6602H96.4524Z" fill="white"/>
</svg>
